# xmcd
#
# Track frame offsets:
#	150
#	9586
#	20704
#	32383
#	42810
#	52742
#	62791
#	73134
#	86891
#	98605
#
# Disc length: 1443 seconds
#
# Revision: 1
# Processed by: cddbd v1.5.2PL0 Copyright (c) Steve Scherf et al.
# Submitted via: audiograbber 1.83.01
#
DISCID=7805a10a
DTITLE=The Chuck Wagon Gang - Old Time Hymns-Volume One
DYEAR=1900
DGENRE=
TTITLE0=The Church In The Wildwood
TTITLE1=Softly And Tenderly
TTITLE2=Will There Be Anystars In My Crown
TTITLE3=Bringing In The Sheaves
TTITLE4=Standing On The Promises
TTITLE5=When The Roll Is Called Up Yonder
TTITLE6=The Gloryland Way
TTITLE7=Master The Tempest Is Raging
TTITLE8=Heaven's Jubilee
TTITLE9=There Is Sunshine In My Soul
EXTD=
EXTT0=
EXTT1=
EXTT2=
EXTT3=
EXTT4=
EXTT5=
EXTT6=
EXTT7=
EXTT8=
EXTT9=
PLAYORDER=
